<svg xmlns="http://www.w3.org/2000/svg" viewBox="0 0 100 100">
  <defs>
    <linearGradient id="grad1" x1="0%" y1="0%" x2="100%" y2="100%">
      <stop offset="0%" style="stop-color:#00e5ff;stop-opacity:1" />
      <stop offset="100%" style="stop-color:#0077ff;stop-opacity:1" />
    </linearGradient>
    <linearGradient id="grad2" x1="0%" y1="100%" x2="100%" y2="0%">
      <stop offset="0%" style="stop-color:#00ffcc;stop-opacity:1" />
      <stop offset="100%" style="stop-color:#00e5ff;stop-opacity:1" />
    </linearGradient>
    <filter id="glow" x="-20%" y="-20%" width="140%" height="140%">
      <feGaussianBlur stdDeviation="3" result="blur" />
      <feComposite in="SourceGraphic" in2="blur" operator="over" />
    </filter>
  </defs>

  <!-- Outer ring glow -->
  <circle cx="50" cy="50" r="46" fill="none" stroke="url(#grad1)" stroke-width="4" filter="url(#glow)" opacity="0.4" />
  
  <!-- Headband -->
  <path d="M 24 55 L 24 45 A 26 26 0 0 1 76 45 L 76 55" fill="none" stroke="url(#grad1)" stroke-width="8" stroke-linecap="round" />
  
  <!-- Ear cups -->
  <rect x="18" y="48" width="12" height="24" rx="6" fill="url(#grad1)" />
  <rect x="70" y="48" width="12" height="24" rx="6" fill="url(#grad1)" />
  
  <!-- Microphone -->
  <path d="M 24 68 Q 24 82 42 84" fill="none" stroke="url(#grad1)" stroke-width="4" stroke-linecap="round" />
  <circle cx="46" cy="84" r="5" fill="url(#grad2)" filter="url(#glow)" />
  
  <!-- Center sound waves -->
  <rect x="38" y="38" width="4" height="12" rx="2" fill="url(#grad2)" />
  <rect x="48" y="30" width="4" height="20" rx="2" fill="url(#grad2)" />
  <rect x="58" y="34" width="4" height="16" rx="2" fill="url(#grad2)" />
</svg>
